<svg id="visual" viewBox="0 0 960 540" width="960" height="540" xmlns="http://www.w3.org/2000/svg" xmlns:xlink="http://www.w3.org/1999/xlink" version="1.1"><rect x="0" y="0" width="960" height="540" fill="#FFFFFF"></rect><defs><linearGradient id="grad1_0" x1="43.8%" y1="100%" x2="100%" y2="0%"><stop offset="14.444444444444446%" stop-color="#715df2" stop-opacity="1"></stop><stop offset="85.55555555555554%" stop-color="#715df2" stop-opacity="1"></stop></linearGradient></defs><defs><linearGradient id="grad1_1" x1="43.8%" y1="100%" x2="100%" y2="0%"><stop offset="14.444444444444446%" stop-color="#715df2" stop-opacity="1"></stop><stop offset="85.55555555555554%" stop-color="#8b73f5" stop-opacity="1"></stop></linearGradient></defs><defs><linearGradient id="grad1_2" x1="43.8%" y1="100%" x2="100%" y2="0%"><stop offset="14.444444444444446%" stop-color="#a28af7" stop-opacity="1"></stop><stop offset="85.55555555555554%" stop-color="#8b73f5" stop-opacity="1"></stop></linearGradient></defs><defs><linearGradient id="grad1_3" x1="43.8%" y1="100%" x2="100%" y2="0%"><stop offset="14.444444444444446%" stop-color="#a28af7" stop-opacity="1"></stop><stop offset="85.55555555555554%" stop-color="#b7a0f9" stop-opacity="1"></stop></linearGradient></defs><defs><linearGradient id="grad1_4" x1="43.8%" y1="100%" x2="100%" y2="0%"><stop offset="14.444444444444446%" stop-color="#cab7fb" stop-opacity="1"></stop><stop offset="85.55555555555554%" stop-color="#b7a0f9" stop-opacity="1"></stop></linearGradient></defs><defs><linearGradient id="grad1_5" x1="43.8%" y1="100%" x2="100%" y2="0%"><stop offset="14.444444444444446%" stop-color="#cab7fb" stop-opacity="1"></stop><stop offset="85.55555555555554%" stop-color="#dccffd" stop-opacity="1"></stop></linearGradient></defs><defs><linearGradient id="grad1_6" x1="43.8%" y1="100%" x2="100%" y2="0%"><stop offset="14.444444444444446%" stop-color="#eee7fe" stop-opacity="1"></stop><stop offset="85.55555555555554%" stop-color="#dccffd" stop-opacity="1"></stop></linearGradient></defs><defs><linearGradient id="grad1_7" x1="43.8%" y1="100%" x2="100%" y2="0%"><stop offset="14.444444444444446%" stop-color="#eee7fe" stop-opacity="1"></stop><stop offset="85.55555555555554%" stop-color="#ffffff" stop-opacity="1"></stop></linearGradient></defs><defs><linearGradient id="grad2_0" x1="0%" y1="100%" x2="56.3%" y2="0%"><stop offset="14.444444444444446%" stop-color="#715df2" stop-opacity="1"></stop><stop offset="85.55555555555554%" stop-color="#715df2" stop-opacity="1"></stop></linearGradient></defs><defs><linearGradient id="grad2_1" x1="0%" y1="100%" x2="56.3%" y2="0%"><stop offset="14.444444444444446%" stop-color="#8b73f5" stop-opacity="1"></stop><stop offset="85.55555555555554%" stop-color="#715df2" stop-opacity="1"></stop></linearGradient></defs><defs><linearGradient id="grad2_2" x1="0%" y1="100%" x2="56.3%" y2="0%"><stop offset="14.444444444444446%" stop-color="#8b73f5" stop-opacity="1"></stop><stop offset="85.55555555555554%" stop-color="#a28af7" stop-opacity="1"></stop></linearGradient></defs><defs><linearGradient id="grad2_3" x1="0%" y1="100%" x2="56.3%" y2="0%"><stop offset="14.444444444444446%" stop-color="#b7a0f9" stop-opacity="1"></stop><stop offset="85.55555555555554%" stop-color="#a28af7" stop-opacity="1"></stop></linearGradient></defs><defs><linearGradient id="grad2_4" x1="0%" y1="100%" x2="56.3%" y2="0%"><stop offset="14.444444444444446%" stop-color="#b7a0f9" stop-opacity="1"></stop><stop offset="85.55555555555554%" stop-color="#cab7fb" stop-opacity="1"></stop></linearGradient></defs><defs><linearGradient id="grad2_5" x1="0%" y1="100%" x2="56.3%" y2="0%"><stop offset="14.444444444444446%" stop-color="#dccffd" stop-opacity="1"></stop><stop offset="85.55555555555554%" stop-color="#cab7fb" stop-opacity="1"></stop></linearGradient></defs><defs><linearGradient id="grad2_6" x1="0%" y1="100%" x2="56.3%" y2="0%"><stop offset="14.444444444444446%" stop-color="#dccffd" stop-opacity="1"></stop><stop offset="85.55555555555554%" stop-color="#eee7fe" stop-opacity="1"></stop></linearGradient></defs><defs><linearGradient id="grad2_7" x1="0%" y1="100%" x2="56.3%" y2="0%"><stop offset="14.444444444444446%" stop-color="#ffffff" stop-opacity="1"></stop><stop offset="85.55555555555554%" stop-color="#eee7fe" stop-opacity="1"></stop></linearGradient></defs><g transform="translate(960, 540)"><path d="M-486 0C-429.2 -42.2 -372.4 -84.4 -357.5 -148.1C-342.7 -211.8 -369.7 -297 -343.7 -343.7C-317.6 -390.3 -238.3 -398.4 -172.2 -415.7C-106.1 -433 -53 -459.5 0 -486L0 0Z" fill="#f7f3ff"></path><path d="M-425.2 0C-375.6 -36.9 -325.9 -73.9 -312.8 -129.6C-299.8 -185.3 -323.5 -259.9 -300.7 -300.7C-277.9 -341.5 -208.5 -348.6 -150.7 -363.8C-92.8 -378.9 -46.4 -402.1 0 -425.2L0 0Z" fill="#e5dbfd"></path><path d="M-364.5 0C-321.9 -31.7 -279.3 -63.3 -268.2 -111.1C-257 -158.8 -277.3 -222.7 -257.7 -257.7C-238.2 -292.7 -178.8 -298.8 -129.2 -311.8C-79.6 -324.8 -39.8 -344.6 0 -364.5L0 0Z" fill="#d3c3fc"></path><path d="M-303.7 0C-268.3 -26.4 -232.8 -52.8 -223.5 -92.6C-214.2 -132.4 -231.1 -185.6 -214.8 -214.8C-198.5 -243.9 -149 -249 -107.6 -259.8C-66.3 -270.7 -33.1 -287.2 0 -303.7L0 0Z" fill="#c1acfa"></path><path d="M-243 0C-214.6 -21.1 -186.2 -42.2 -178.8 -74C-171.3 -105.9 -184.9 -148.5 -171.8 -171.8C-158.8 -195.2 -119.2 -199.2 -86.1 -207.9C-53 -216.5 -26.5 -229.8 0 -243L0 0Z" fill="#ad95f8"></path><path d="M-182.2 0C-161 -15.8 -139.7 -31.7 -134.1 -55.5C-128.5 -79.4 -138.7 -111.4 -128.9 -128.9C-119.1 -146.4 -89.4 -149.4 -64.6 -155.9C-39.8 -162.4 -19.9 -172.3 0 -182.2L0 0Z" fill="#977ef6"></path><path d="M-121.5 0C-107.3 -10.6 -93.1 -21.1 -89.4 -37C-85.7 -52.9 -92.4 -74.2 -85.9 -85.9C-79.4 -97.6 -59.6 -99.6 -43.1 -103.9C-26.5 -108.3 -13.3 -114.9 0 -121.5L0 0Z" fill="#7f68f3"></path><path d="M-60.7 0C-53.7 -5.3 -46.6 -10.6 -44.7 -18.5C-42.8 -26.5 -46.2 -37.1 -43 -43C-39.7 -48.8 -29.8 -49.8 -21.5 -52C-13.3 -54.1 -6.6 -57.4 0 -60.7L0 0Z" fill="#715df2"></path></g><g transform="translate(0, 0)"><path d="M486 0C472.8 57.3 459.5 114.6 441.6 182.9C423.7 251.3 401.1 330.6 343.7 343.7C286.2 356.7 194 303.3 130.9 316C67.8 328.6 33.9 407.3 0 486L0 0Z" fill="#f7f3ff"></path><path d="M425.3 0C413.7 50.1 402.1 100.3 386.4 160.1C370.7 219.9 351 289.3 300.7 300.7C250.4 312.1 169.7 265.4 114.5 276.5C59.3 287.6 29.7 356.4 0 425.3L0 0Z" fill="#e5dbfd"></path><path d="M364.5 0C354.6 43 344.7 85.9 331.2 137.2C317.8 188.4 300.8 248 257.7 257.7C214.7 267.5 145.5 227.5 98.2 237C50.8 246.5 25.4 305.5 0 364.5L0 0Z" fill="#d3c3fc"></path><path d="M303.8 0C295.5 35.8 287.2 71.6 276 114.3C264.8 157 250.7 206.7 214.8 214.8C178.9 222.9 121.2 189.6 81.8 197.5C42.4 205.4 21.2 254.6 0 303.8L0 0Z" fill="#c1acfa"></path><path d="M243 0C236.4 28.6 229.8 57.3 220.8 91.5C211.8 125.6 200.5 165.3 171.8 171.8C143.1 178.3 97 151.7 65.4 158C33.9 164.3 16.9 203.7 0 243L0 0Z" fill="#ad95f8"></path><path d="M182.3 0C177.3 21.5 172.3 43 165.6 68.6C158.9 94.2 150.4 124 128.9 128.9C107.3 133.7 72.7 113.7 49.1 118.5C25.4 123.2 12.7 152.7 0 182.3L0 0Z" fill="#977ef6"></path><path d="M121.5 0C118.2 14.3 114.9 28.6 110.4 45.7C105.9 62.8 100.3 82.7 85.9 85.9C71.6 89.2 48.5 75.8 32.7 79C16.9 82.2 8.5 101.8 0 121.5L0 0Z" fill="#7f68f3"></path><path d="M60.8 0C59.1 7.2 57.4 14.3 55.2 22.9C53 31.4 50.1 41.3 43 43C35.8 44.6 24.2 37.9 16.4 39.5C8.5 41.1 4.2 50.9 0 60.8L0 0Z" fill="#715df2"></path></g></svg>